<svg width="30" height="30" viewBox="0 0 30 30" fill="none" xmlns="http://www.w3.org/2000/svg">
<path d="M9.375 23.4375C9.37473 23.9531 9.23275 24.4586 8.96458 24.899C8.69642 25.3393 8.31238 25.6974 7.85443 25.9342C7.39648 26.1711 6.88225 26.2775 6.36792 26.2418C5.8536 26.2061 5.35898 26.0298 4.9381 25.732C4.51723 25.4342 4.1863 25.0265 3.98148 24.5534C3.77666 24.0802 3.70582 23.5599 3.77672 23.0493C3.84762 22.5386 4.05752 22.0573 4.38348 21.6578C4.70944 21.2584 5.13893 20.9562 5.625 20.7844V17.8125C5.625 17.5639 5.72377 17.3254 5.89959 17.1496C6.0754 16.9738 6.31386 16.875 6.5625 16.875C6.81114 16.875 7.0496 16.9738 7.22541 17.1496C7.40123 17.3254 7.5 17.5639 7.5 17.8125V20.7844C8.04858 20.9783 8.52351 21.3377 8.85932 21.8128C9.19514 22.288 9.37531 22.8556 9.375 23.4375Z" fill="#06113C"/>
<path d="M1.875 4.6875C1.875 3.4443 2.36886 2.25201 3.24794 1.37294C4.12702 0.49386 5.3193 0 6.5625 0C7.80571 0 8.99799 0.49386 9.87707 1.37294C10.7561 2.25201 11.25 3.4443 11.25 4.6875V18.8438C12.1544 19.7668 12.7661 20.9363 13.0085 22.2056C13.2509 23.4749 13.1132 24.7875 12.6126 25.9788C12.112 27.1701 11.2708 28.1872 10.1945 28.9023C9.11822 29.6175 7.85474 29.999 6.5625 29.999C5.27027 29.999 4.00679 29.6175 2.93051 28.9023C1.85422 28.1872 1.01304 27.1701 0.512437 25.9788C0.0118338 24.7875 -0.125906 23.4749 0.11649 22.2056C0.358885 20.9363 0.970626 19.7668 1.875 18.8438V4.6875ZM6.5625 1.875C5.81658 1.875 5.10121 2.17132 4.57377 2.69876C4.04632 3.22621 3.75 3.94158 3.75 4.6875V19.6631L3.43688 19.9444C2.7292 20.5772 2.23037 21.41 2.00639 22.3326C1.78241 23.2552 1.84384 24.224 2.18256 25.1109C2.52128 25.9978 3.12131 26.761 3.90325 27.2993C4.6852 27.8377 5.61219 28.126 6.56157 28.126C7.51094 28.126 8.43793 27.8377 9.21988 27.2993C10.0018 26.761 10.6019 25.9978 10.9406 25.1109C11.2793 24.224 11.3407 23.2552 11.1167 22.3326C10.8928 21.41 10.3939 20.5772 9.68625 19.9444L9.375 19.6613V4.6875C9.375 3.94158 9.07869 3.22621 8.55124 2.69876C8.0238 2.17132 7.30842 1.875 6.5625 1.875ZM15.9375 3.75C16.1861 3.75 16.4246 3.84877 16.6004 4.02459C16.7762 4.2004 16.875 4.43886 16.875 4.6875V7.11188L18.0863 5.89875C18.2623 5.72271 18.501 5.62382 18.75 5.62382C18.999 5.62382 19.2377 5.72271 19.4138 5.89875C19.5898 6.07479 19.6887 6.31355 19.6887 6.5625C19.6887 6.81145 19.5898 7.05021 19.4138 7.22625L16.875 9.76312V13.3762L20.0044 11.5706L20.9325 8.10188C20.9645 7.98295 21.0196 7.87149 21.0947 7.77386C21.1698 7.67624 21.2634 7.59435 21.3701 7.53289C21.4768 7.47143 21.5946 7.4316 21.7168 7.41566C21.8389 7.39972 21.963 7.40799 22.0819 7.44C22.2008 7.47201 22.3123 7.52713 22.4099 7.60222C22.5075 7.6773 22.5894 7.77088 22.6509 7.87761C22.7123 7.98434 22.7522 8.10213 22.7681 8.22425C22.784 8.34638 22.7758 8.47045 22.7438 8.58937L22.2994 10.2431L24.3994 9.03187C24.6146 8.90952 24.8695 8.87725 25.1084 8.94211C25.3473 9.00697 25.5509 9.1637 25.6746 9.3781C25.7984 9.59249 25.8324 9.84715 25.7691 10.0865C25.7058 10.3258 25.5504 10.5304 25.3369 10.6556L23.2369 11.8669L24.8944 12.3112C25.0133 12.3433 25.1248 12.3984 25.2224 12.4735C25.32 12.5486 25.4019 12.6421 25.4634 12.7489C25.5248 12.8556 25.5647 12.9734 25.5806 13.0955C25.5965 13.2176 25.5883 13.3417 25.5563 13.4606C25.5242 13.5796 25.4691 13.691 25.394 13.7886C25.319 13.8863 25.2254 13.9681 25.1186 14.0296C25.0119 14.0911 24.8941 14.1309 24.772 14.1468C24.6499 14.1628 24.5258 14.1545 24.4069 14.1225L20.9419 13.1944L17.8125 15L20.9419 16.8056L24.4088 15.8775C24.5284 15.8434 24.6537 15.8334 24.7772 15.8482C24.9008 15.863 25.0202 15.9023 25.1284 15.9637C25.2366 16.0251 25.3315 16.1074 25.4076 16.2059C25.4837 16.3043 25.5394 16.4169 25.5715 16.5372C25.6036 16.6574 25.6115 16.7828 25.5946 16.9061C25.5778 17.0294 25.5366 17.1481 25.4733 17.2553C25.4101 17.3624 25.3262 17.456 25.2265 17.5304C25.1268 17.6048 25.0132 17.6587 24.8925 17.6887L23.2369 18.1331L25.3369 19.3444C25.5504 19.4696 25.7058 19.6742 25.7691 19.9135C25.8324 20.1529 25.7984 20.4075 25.6746 20.6219C25.5509 20.8363 25.3473 20.993 25.1084 21.0579C24.8695 21.1228 24.6146 21.0905 24.3994 20.9681L22.2994 19.7569L22.7438 21.4125C22.7779 21.5322 22.7878 21.6574 22.773 21.781C22.7582 21.9045 22.719 22.0239 22.6576 22.1321C22.5962 22.2404 22.5139 22.3353 22.4154 22.4114C22.3169 22.4875 22.2043 22.5432 22.0841 22.5753C21.9639 22.6074 21.8385 22.6152 21.7152 22.5984C21.5919 22.5815 21.4732 22.5403 21.366 22.4771C21.2588 22.4139 21.1653 22.33 21.0908 22.2303C21.0164 22.1305 20.9626 22.017 20.9325 21.8963L20.0063 18.4312L16.875 16.6238V20.2369L19.4138 22.7738C19.5009 22.8609 19.5701 22.9644 19.6172 23.0783C19.6644 23.1922 19.6887 23.3142 19.6887 23.4375C19.6887 23.5608 19.6644 23.6828 19.6172 23.7967C19.5701 23.9106 19.5009 24.0141 19.4138 24.1012C19.3266 24.1884 19.2231 24.2576 19.1092 24.3047C18.9953 24.3519 18.8733 24.3762 18.75 24.3762C18.6267 24.3762 18.5047 24.3519 18.3908 24.3047C18.2769 24.2576 18.1734 24.1884 18.0863 24.1012L16.875 22.8881V25.3125C16.875 25.5611 16.7762 25.7996 16.6004 25.9754C16.4246 26.1512 16.1861 26.25 15.9375 26.25C15.6889 26.25 15.4504 26.1512 15.2746 25.9754C15.0988 25.7996 15 25.5611 15 25.3125V4.6875C15 4.43886 15.0988 4.2004 15.2746 4.02459C15.4504 3.84877 15.6889 3.75 15.9375 3.75Z" fill="#06113C"/>
</svg>
