<svg width="40" height="40" viewBox="0 0 40 40" fill="none" xmlns="http://www.w3.org/2000/svg">
<path d="M12.7273 36.3636H5.45455C4.97233 36.3636 4.50987 36.1721 4.1689 35.8311C3.82792 35.4901 3.63636 35.0277 3.63636 34.5455V27.2727C3.63636 26.7905 3.44481 26.3281 3.10383 25.9871C2.76286 25.6461 2.30039 25.4545 1.81818 25.4545C1.33597 25.4545 0.873508 25.6461 0.532533 25.9871C0.191558 26.3281 0 26.7905 0 27.2727V34.5455C0 35.9921 0.574674 37.3795 1.5976 38.4024C2.62053 39.4253 4.00791 40 5.45455 40H12.7273C13.2095 40 13.6719 39.8084 14.0129 39.4675C14.3539 39.1265 14.5455 38.664 14.5455 38.1818C14.5455 37.6996 14.3539 37.2371 14.0129 36.8962C13.6719 36.5552 13.2095 36.3636 12.7273 36.3636ZM38.1818 25.4545C37.6996 25.4545 37.2371 25.6461 36.8962 25.9871C36.5552 26.3281 36.3636 26.7905 36.3636 27.2727V34.5455C36.3636 35.0277 36.1721 35.4901 35.8311 35.8311C35.4901 36.1721 35.0277 36.3636 34.5455 36.3636H27.2727C26.7905 36.3636 26.3281 36.5552 25.9871 36.8962C25.6461 37.2371 25.4545 37.6996 25.4545 38.1818C25.4545 38.664 25.6461 39.1265 25.9871 39.4675C26.3281 39.8084 26.7905 40 27.2727 40H34.5455C35.9921 40 37.3795 39.4253 38.4024 38.4024C39.4253 37.3795 40 35.9921 40 34.5455V27.2727C40 26.7905 39.8084 26.3281 39.4675 25.9871C39.1265 25.6461 38.664 25.4545 38.1818 25.4545ZM34.5455 0H27.2727C26.7905 0 26.3281 0.191558 25.9871 0.532533C25.6461 0.873508 25.4545 1.33597 25.4545 1.81818C25.4545 2.30039 25.6461 2.76286 25.9871 3.10383C26.3281 3.44481 26.7905 3.63636 27.2727 3.63636H34.5455C35.0277 3.63636 35.4901 3.82792 35.8311 4.1689C36.1721 4.50987 36.3636 4.97233 36.3636 5.45455V12.7273C36.3636 13.2095 36.5552 13.6719 36.8962 14.0129C37.2371 14.3539 37.6996 14.5455 38.1818 14.5455C38.664 14.5455 39.1265 14.3539 39.4675 14.0129C39.8084 13.6719 40 13.2095 40 12.7273V5.45455C40 4.00791 39.4253 2.62053 38.4024 1.5976C37.3795 0.574674 35.9921 0 34.5455 0ZM1.81818 14.5455C2.30039 14.5455 2.76286 14.3539 3.10383 14.0129C3.44481 13.6719 3.63636 13.2095 3.63636 12.7273V5.45455C3.63636 4.97233 3.82792 4.50987 4.1689 4.1689C4.50987 3.82792 4.97233 3.63636 5.45455 3.63636H12.7273C13.2095 3.63636 13.6719 3.44481 14.0129 3.10383C14.3539 2.76286 14.5455 2.30039 14.5455 1.81818C14.5455 1.33597 14.3539 0.873508 14.0129 0.532533C13.6719 0.191558 13.2095 0 12.7273 0H5.45455C4.00791 0 2.62053 0.574674 1.5976 1.5976C0.574674 2.62053 0 4.00791 0 5.45455V12.7273C0 13.2095 0.191558 13.6719 0.532533 14.0129C0.873508 14.3539 1.33597 14.5455 1.81818 14.5455ZM16.3636 7.27273H9.09091C8.6087 7.27273 8.14624 7.46429 7.80526 7.80526C7.46429 8.14624 7.27273 8.6087 7.27273 9.09091V16.3636C7.27273 16.8458 7.46429 17.3083 7.80526 17.6493C8.14624 17.9903 8.6087 18.1818 9.09091 18.1818H16.3636C16.8458 18.1818 17.3083 17.9903 17.6493 17.6493C17.9903 17.3083 18.1818 16.8458 18.1818 16.3636V9.09091C18.1818 8.6087 17.9903 8.14624 17.6493 7.80526C17.3083 7.46429 16.8458 7.27273 16.3636 7.27273ZM14.5455 14.5455H10.9091V10.9091H14.5455V14.5455ZM23.6364 18.1818H30.9091C31.3913 18.1818 31.8538 17.9903 32.1947 17.6493C32.5357 17.3083 32.7273 16.8458 32.7273 16.3636V9.09091C32.7273 8.6087 32.5357 8.14624 32.1947 7.80526C31.8538 7.46429 31.3913 7.27273 30.9091 7.27273H23.6364C23.1542 7.27273 22.6917 7.46429 22.3507 7.80526C22.0097 8.14624 21.8182 8.6087 21.8182 9.09091V16.3636C21.8182 16.8458 22.0097 17.3083 22.3507 17.6493C22.6917 17.9903 23.1542 18.1818 23.6364 18.1818ZM25.4545 10.9091H29.0909V14.5455H25.4545V10.9091ZM16.3636 21.8182H9.09091C8.6087 21.8182 8.14624 22.0097 7.80526 22.3507C7.46429 22.6917 7.27273 23.1542 7.27273 23.6364V30.9091C7.27273 31.3913 7.46429 31.8538 7.80526 32.1947C8.14624 32.5357 8.6087 32.7273 9.09091 32.7273H16.3636C16.8458 32.7273 17.3083 32.5357 17.6493 32.1947C17.9903 31.8538 18.1818 31.3913 18.1818 30.9091V23.6364C18.1818 23.1542 17.9903 22.6917 17.6493 22.3507C17.3083 22.0097 16.8458 21.8182 16.3636 21.8182ZM14.5455 29.0909H10.9091V25.4545H14.5455V29.0909ZM23.6364 27.2727C24.1186 27.2727 24.581 27.0812 24.922 26.7402C25.263 26.3992 25.4545 25.9368 25.4545 25.4545C25.9368 25.4545 26.3992 25.263 26.7402 24.922C27.0812 24.581 27.2727 24.1186 27.2727 23.6364C27.2727 23.1542 27.0812 22.6917 26.7402 22.3507C26.3992 22.0097 25.9368 21.8182 25.4545 21.8182H23.6364C23.1542 21.8182 22.6917 22.0097 22.3507 22.3507C22.0097 22.6917 21.8182 23.1542 21.8182 23.6364V25.4545C21.8182 25.9368 22.0097 26.3992 22.3507 26.7402C22.6917 27.0812 23.1542 27.2727 23.6364 27.2727ZM30.9091 21.8182C30.4269 21.8182 29.9644 22.0097 29.6234 22.3507C29.2825 22.6917 29.0909 23.1542 29.0909 23.6364V29.0909C28.6087 29.0909 28.1462 29.2825 27.8053 29.6234C27.4643 29.9644 27.2727 30.4269 27.2727 30.9091C27.2727 31.3913 27.4643 31.8538 27.8053 32.1947C28.1462 32.5357 28.6087 32.7273 29.0909 32.7273H30.9091C31.3913 32.7273 31.8538 32.5357 32.1947 32.1947C32.5357 31.8538 32.7273 31.3913 32.7273 30.9091V23.6364C32.7273 23.1542 32.5357 22.6917 32.1947 22.3507C31.8538 22.0097 31.3913 21.8182 30.9091 21.8182ZM23.6364 29.0909C23.2768 29.0909 22.9252 29.1975 22.6262 29.3973C22.3272 29.5971 22.0942 29.8811 21.9566 30.2133C21.819 30.5455 21.783 30.9111 21.8531 31.2638C21.9233 31.6165 22.0964 31.9405 22.3507 32.1947C22.605 32.449 22.929 32.6222 23.2817 32.6923C23.6343 32.7625 23.9999 32.7265 24.3322 32.5889C24.6644 32.4513 24.9483 32.2182 25.1481 31.9192C25.3479 31.6202 25.4545 31.2687 25.4545 30.9091C25.4545 30.4269 25.263 29.9644 24.922 29.6234C24.581 29.2825 24.1186 29.0909 23.6364 29.0909Z" fill="white"/>
</svg>
