<svg width="20" height="20" viewBox="0 0 20 20" fill="none" xmlns="http://www.w3.org/2000/svg">
<path d="M17.4918 14.9917L13.3751 10.875L11.6084 12.6417L15.7251 16.7583C16.2168 17.25 17.0084 17.25 17.4918 16.7583C17.9751 16.2667 17.9751 15.475 17.4918 14.9917ZM14.7084 8.33332C16.3168 8.33332 17.6251 7.02498 17.6251 5.41665C17.6251 4.93332 17.4918 4.48332 17.2834 4.08332L15.0334 6.33332L13.7918 5.09165L16.0418 2.84165C15.6418 2.63332 15.1918 2.49999 14.7084 2.49999C13.1001 2.49999 11.7918 3.80832 11.7918 5.41665C11.7918 5.75832 11.8584 6.08332 11.9668 6.38332L10.4251 7.92499L8.94178 6.44165C9.01904 6.36456 9.08033 6.27298 9.12214 6.17217C9.16396 6.07136 9.18549 5.96329 9.18549 5.85415C9.18549 5.74501 9.16396 5.63694 9.12214 5.53613C9.08033 5.43532 9.01904 5.34375 8.94178 5.26665L8.35012 4.67499L10.1168 2.90832C9.64803 2.44015 9.01262 2.17719 8.35012 2.17719C7.68761 2.17719 7.0522 2.44015 6.58345 2.90832L4.23345 5.26665C4.1562 5.34375 4.09491 5.43532 4.05309 5.53613C4.01127 5.63694 3.98975 5.74501 3.98975 5.85415C3.98975 5.96329 4.01127 6.07136 4.05309 6.17217C4.09491 6.27298 4.1562 6.36456 4.23345 6.44165L4.82512 7.03332H2.70845C2.55012 7.03332 2.40012 7.09165 2.29178 7.20832C2.23635 7.26263 2.19231 7.32746 2.16225 7.39901C2.13218 7.47055 2.1167 7.54738 2.1167 7.62498C2.1167 7.70259 2.13218 7.77942 2.16225 7.85096C2.19231 7.92251 2.23635 7.98734 2.29178 8.04165L4.40845 10.1583C4.46276 10.2138 4.52759 10.2578 4.59914 10.2879C4.67068 10.3179 4.74751 10.3334 4.82512 10.3334C4.90272 10.3334 4.97955 10.3179 5.0511 10.2879C5.12264 10.2578 5.18747 10.2138 5.24178 10.1583C5.35012 10.05 5.41678 9.89998 5.41678 9.74165V7.62498L6.00012 8.20832C6.32512 8.53332 6.85012 8.53332 7.17512 8.20832L8.65845 9.69165L3.36678 14.9833C3.24988 15.0988 3.15706 15.2364 3.0937 15.388C3.03035 15.5396 2.99773 15.7023 2.99773 15.8667C2.99773 16.031 3.03035 16.1937 3.0937 16.3453C3.15706 16.4969 3.24988 16.6345 3.36678 16.75C3.85845 17.2417 4.65012 17.2417 5.13345 16.75L13.7334 8.15832C14.0418 8.26665 14.3668 8.33332 14.7084 8.33332Z" fill="white"/>
</svg>
