<svg width="30" height="30" viewBox="0 0 30 30" fill="none" xmlns="http://www.w3.org/2000/svg">
<path d="M26.2374 22.4875L20.0624 16.3125L17.4124 18.9625L23.5874 25.1375C24.3249 25.875 25.5124 25.875 26.2374 25.1375C26.9624 24.4 26.9624 23.2125 26.2374 22.4875ZM22.0624 12.5C24.4749 12.5 26.4374 10.5375 26.4374 8.12501C26.4374 7.40001 26.2374 6.72501 25.9249 6.12501L22.5499 9.50001L20.6874 7.63751L24.0624 4.26251C23.4624 3.95001 22.7874 3.75001 22.0624 3.75001C19.6499 3.75001 17.6874 5.71251 17.6874 8.12501C17.6874 8.63751 17.7874 9.12501 17.9499 9.57501L15.6374 11.8875L13.4124 9.66251C13.5283 9.54687 13.6202 9.40951 13.683 9.25829C13.7457 9.10707 13.778 8.94497 13.778 8.78126C13.778 8.61755 13.7457 8.45544 13.683 8.30423C13.6202 8.15301 13.5283 8.01565 13.4124 7.90001L12.5249 7.01251L15.1749 4.36251C14.4718 3.66026 13.5187 3.26581 12.5249 3.26581C11.5312 3.26581 10.5781 3.66026 9.87493 4.36251L6.34993 7.90001C6.23405 8.01565 6.14212 8.15301 6.07939 8.30423C6.01666 8.45544 5.98438 8.61755 5.98438 8.78126C5.98438 8.94497 6.01666 9.10707 6.07939 9.25829C6.14212 9.40951 6.23405 9.54687 6.34993 9.66251L7.23743 10.55H4.06243C3.82493 10.55 3.59993 10.6375 3.43743 10.8125C3.35428 10.894 3.28823 10.9912 3.24313 11.0985C3.19803 11.2059 3.1748 11.3211 3.1748 11.4375C3.1748 11.5539 3.19803 11.6692 3.24313 11.7765C3.28823 11.8838 3.35428 11.981 3.43743 12.0625L6.61243 15.2375C6.6939 15.3207 6.79114 15.3867 6.89846 15.4318C7.00578 15.4769 7.12102 15.5001 7.23743 15.5001C7.35384 15.5001 7.46908 15.4769 7.5764 15.4318C7.68372 15.3867 7.78096 15.3207 7.86243 15.2375C8.02493 15.075 8.12493 14.85 8.12493 14.6125V11.4375L8.99993 12.3125C9.48743 12.8 10.2749 12.8 10.7624 12.3125L12.9874 14.5375L5.04993 22.475C4.87457 22.6482 4.73534 22.8546 4.64031 23.082C4.54529 23.3095 4.49636 23.5535 4.49636 23.8C4.49636 24.0465 4.54529 24.2906 4.64031 24.518C4.73534 24.7455 4.87457 24.9518 5.04993 25.125C5.78743 25.8625 6.97493 25.8625 7.69993 25.125L20.5999 12.2375C21.0624 12.4 21.5499 12.5 22.0624 12.5Z" fill="#06113C"/>
</svg>
