<svg width="30" height="30" viewBox="0 0 30 30" fill="none" xmlns="http://www.w3.org/2000/svg">
<g clip-path="url(#clip0_307_163)">
<path d="M3.75001 11.25C3.74995 9.39232 4.20994 7.56349 5.08891 5.92686C5.96787 4.29023 7.23846 2.89673 8.7872 1.87081C10.336 0.844878 12.1147 0.21845 13.9645 0.0474556C15.8143 -0.123539 17.6777 0.166223 19.3883 0.890869C21.0989 1.61551 22.6034 2.75249 23.7674 4.20027C24.9315 5.64804 25.719 7.36156 26.0594 9.18782C26.3999 11.0141 26.2828 12.8962 25.7187 14.6662C25.1545 16.4362 24.1608 18.0389 22.8263 19.3313C22.4456 19.6988 22.1531 20.0813 21.9769 20.4919L20.5481 23.8088C20.4756 23.9769 20.3555 24.1201 20.2026 24.2207C20.0496 24.3214 19.8706 24.375 19.6875 24.375H10.3125C10.1291 24.3754 9.94966 24.3219 9.79635 24.2212C9.64305 24.1206 9.52263 23.9772 9.45001 23.8088L8.02313 20.49C7.81883 20.0518 7.53021 19.658 7.17376 19.3313C6.0893 18.2835 5.22719 17.0278 4.63893 15.6393C4.05068 14.2508 3.74835 12.758 3.75001 11.25ZM9.37501 27.1875C9.37501 26.9389 9.47378 26.7004 9.64959 26.5246C9.82541 26.3488 10.0639 26.25 10.3125 26.25H19.6875C19.9361 26.25 20.1746 26.3488 20.3504 26.5246C20.5262 26.7004 20.625 26.9389 20.625 27.1875C20.625 27.4362 20.5262 27.6746 20.3504 27.8505C20.1746 28.0263 19.9361 28.125 19.6875 28.125L19.2675 28.9632C19.1119 29.2746 18.8727 29.5365 18.5766 29.7196C18.2806 29.9028 17.9394 29.9999 17.5913 30H12.4088C12.0606 29.9999 11.7194 29.9028 11.4234 29.7196C11.1273 29.5365 10.8881 29.2746 10.7325 28.9632L10.3125 28.125C10.0639 28.125 9.82541 28.0263 9.64959 27.8505C9.47378 27.6746 9.37501 27.4362 9.37501 27.1875Z" fill="#06113C"/>
</g>
<defs>
<clipPath id="clip0_307_163">
<rect width="30" height="30" fill="white"/>
</clipPath>
</defs>
</svg>
