<svg width="18" height="18" viewBox="0 0 18 18" fill="none" xmlns="http://www.w3.org/2000/svg">
<g clip-path="url(#clip0_305_33)">
<path d="M2.25 6.74997C2.24997 5.63533 2.52596 4.53804 3.05334 3.55606C3.58072 2.57408 4.34307 1.73798 5.27232 1.12242C6.20157 0.506866 7.2688 0.131009 8.3787 0.0284123C9.48861 -0.0741843 10.6066 0.099673 11.633 0.53446C12.6593 0.969248 13.562 1.65143 14.2605 2.5201C14.9589 3.38877 15.4314 4.41688 15.6357 5.51263C15.84 6.60839 15.7697 7.73768 15.4312 8.79967C15.0927 9.86167 14.4965 10.8233 13.6958 11.5987C13.4674 11.8192 13.2919 12.0487 13.1861 12.2951L12.3289 14.2852C12.2854 14.3861 12.2133 14.472 12.1215 14.5324C12.0298 14.5928 11.9223 14.6249 11.8125 14.625H6.1875C6.07747 14.6252 5.96979 14.5931 5.87781 14.5327C5.78583 14.4723 5.71358 14.3863 5.67 14.2852L4.81388 12.294C4.6913 12.031 4.51813 11.7948 4.30425 11.5987C3.65358 10.97 3.13631 10.2166 2.78336 9.38354C2.43041 8.55044 2.24901 7.65475 2.25 6.74997ZM5.625 16.3125C5.625 16.1633 5.68427 16.0202 5.78976 15.9147C5.89525 15.8092 6.03832 15.75 6.1875 15.75H11.8125C11.9617 15.75 12.1048 15.8092 12.2103 15.9147C12.3157 16.0202 12.375 16.1633 12.375 16.3125C12.375 16.4617 12.3157 16.6047 12.2103 16.7102C12.1048 16.8157 11.9617 16.875 11.8125 16.875L11.5605 17.3778C11.4671 17.5647 11.3236 17.7218 11.146 17.8317C10.9683 17.9416 10.7636 17.9999 10.5548 18H7.44525C7.23638 17.9999 7.03167 17.9416 6.85404 17.8317C6.6764 17.7218 6.53287 17.5647 6.4395 17.3778L6.1875 16.875C6.03832 16.875 5.89525 16.8157 5.78976 16.7102C5.68427 16.6047 5.625 16.4617 5.625 16.3125Z" fill="white"/>
</g>
<defs>
<clipPath id="clip0_305_33">
<rect width="18" height="18" fill="white"/>
</clipPath>
</defs>
</svg>
