<svg width="12" height="6" viewBox="0 0 12 6" fill="none" xmlns="http://www.w3.org/2000/svg">
<path d="M11.7359 5.77056C11.5667 5.91747 11.3373 6 11.098 6C10.8588 6 10.6294 5.91747 10.4602 5.77056L5.99455 1.89154L1.52889 5.77056C1.35874 5.91331 1.13086 5.99229 0.894314 5.99051C0.657772 5.98872 0.431499 5.90631 0.264234 5.76101C0.0969668 5.61572 0.00208955 5.41917 3.34473e-05 5.21371C-0.0020217 5.00824 0.0889102 4.81029 0.253245 4.66249L5.35673 0.229439C5.52591 0.082529 5.75533 -5.45926e-07 5.99455 -5.25013e-07C6.23377 -5.041e-07 6.4632 0.0825291 6.63238 0.229439L11.7359 4.66249C11.905 4.80945 12 5.00873 12 5.21653C12 5.42432 11.905 5.62361 11.7359 5.77056Z" fill="#06113C"/>
</svg>
