<svg width="13" height="6" viewBox="0 0 13 6" fill="none" xmlns="http://www.w3.org/2000/svg">
<path d="M0.631765 0.365495C0.796534 0.240465 1.01998 0.170227 1.25296 0.170227C1.48595 0.170227 1.70939 0.240465 1.87416 0.365495L6.22342 3.66679L10.5727 0.365495C10.7384 0.244008 10.9603 0.176785 11.1907 0.178305C11.4211 0.179825 11.6415 0.249965 11.8044 0.373619C11.9673 0.497273 12.0597 0.664546 12.0617 0.839413C12.0637 1.01428 11.9751 1.18275 11.8151 1.30853L6.84462 5.08134C6.67985 5.20637 6.4564 5.27661 6.22342 5.27661C5.99044 5.27661 5.76699 5.20637 5.60222 5.08134L0.631765 1.30853C0.467046 1.18346 0.374512 1.01386 0.374512 0.837013C0.374512 0.660167 0.467046 0.490562 0.631765 0.365495Z" fill="#06113C"/>
</svg>
