<svg width="20" height="20" viewBox="0 0 20 20" fill="none" xmlns="http://www.w3.org/2000/svg">
<path d="M16.6666 1.11108H2.77772C2.4709 1.11108 2.22217 1.35981 2.22217 1.66664V6.11108C2.22217 6.41791 2.4709 6.66664 2.77772 6.66664H16.6666C16.9734 6.66664 17.2222 6.41791 17.2222 6.11108V1.66664C17.2222 1.35981 16.9734 1.11108 16.6666 1.11108Z" fill="white"/>
<path d="M18.3331 3.33331H17.7776V6.79998L10.3942 9.13887C10.2761 9.17453 10.1733 9.24849 10.1018 9.34908C10.0304 9.44967 9.99452 9.57117 9.99978 9.69442V10.5555H8.88867V18.8889C8.88867 19.0362 8.9472 19.1775 9.05139 19.2817C9.15558 19.3859 9.29688 19.4444 9.44423 19.4444H11.6664C11.8138 19.4444 11.9551 19.3859 12.0593 19.2817C12.1635 19.1775 12.222 19.0362 12.222 18.8889V10.5555H11.1109V10.1L18.4942 7.77776C18.6123 7.74209 18.7152 7.66814 18.7866 7.56755C18.858 7.46696 18.8939 7.34545 18.8887 7.2222V3.88887C18.8887 3.74153 18.8301 3.60022 18.726 3.49603C18.6218 3.39184 18.4805 3.33331 18.3331 3.33331Z" fill="white"/>
</svg>
