<svg width="30" height="30" viewBox="0 0 30 30" fill="none" xmlns="http://www.w3.org/2000/svg">
<path d="M24.9999 1.66669H4.16659C3.70635 1.66669 3.33325 2.03978 3.33325 2.50002V9.16669C3.33325 9.62692 3.70635 10 4.16659 10H24.9999C25.4602 10 25.8333 9.62692 25.8333 9.16669V2.50002C25.8333 2.03978 25.4602 1.66669 24.9999 1.66669Z" fill="#06113C"/>
<path d="M27.4999 5H26.6666V10.2L15.5916 13.7083C15.4144 13.7618 15.2601 13.8728 15.153 14.0237C15.0459 14.1745 14.992 14.3568 14.9999 14.5417V15.8333H13.3333V28.3333C13.3333 28.5543 13.421 28.7663 13.5773 28.9226C13.7336 29.0789 13.9456 29.1667 14.1666 29.1667H17.4999C17.7209 29.1667 17.9329 29.0789 18.0892 28.9226C18.2455 28.7663 18.3333 28.5543 18.3333 28.3333V15.8333H16.6666V15.15L27.7416 11.6667C27.9187 11.6132 28.073 11.5022 28.1802 11.3513C28.2873 11.2005 28.3412 11.0182 28.3333 10.8333V5.83333C28.3333 5.61232 28.2455 5.40036 28.0892 5.24408C27.9329 5.0878 27.7209 5 27.4999 5Z" fill="#06113C"/>
</svg>
