<svg width="60" height="22" viewBox="0 0 60 22" fill="none" xmlns="http://www.w3.org/2000/svg">
<path d="M24.6318 16.3655C24.7965 16.2405 25.02 16.1702 25.253 16.1702C25.4859 16.1702 25.7094 16.2405 25.8742 16.3655L30.2234 19.6668L34.5727 16.3655C34.7384 16.244 34.9603 16.1768 35.1907 16.1783C35.4211 16.1798 35.6415 16.25 35.8044 16.3736C35.9673 16.4973 36.0597 16.6645 36.0617 16.8394C36.0637 17.0143 35.9751 17.1827 35.8151 17.3085L30.8446 21.0813C30.6798 21.2064 30.4564 21.2766 30.2234 21.2766C29.9904 21.2766 29.767 21.2064 29.6022 21.0813L24.6318 17.3085C24.467 17.1835 24.3745 17.0139 24.3745 16.837C24.3745 16.6602 24.467 16.4906 24.6318 16.3655Z" fill="#06113C"/>
<path d="M10.982 4.2L6.684 14H5.298L0.986 4.2H2.498L6.026 12.25L9.582 4.2H10.982ZM18.1812 10.332C18.1812 10.4347 18.1718 10.57 18.1532 10.738H12.1332C12.2172 11.3913 12.5018 11.9187 12.9872 12.32C13.4818 12.712 14.0932 12.908 14.8212 12.908C15.7078 12.908 16.4218 12.6093 16.9632 12.012L17.7052 12.88C17.3692 13.272 16.9492 13.5707 16.4452 13.776C15.9505 13.9813 15.3952 14.084 14.7792 14.084C13.9952 14.084 13.2998 13.9253 12.6932 13.608C12.0865 13.2813 11.6152 12.8287 11.2792 12.25C10.9525 11.6713 10.7892 11.018 10.7892 10.29C10.7892 9.57133 10.9478 8.92267 11.2652 8.344C11.5918 7.76533 12.0352 7.31733 12.5952 7C13.1645 6.67333 13.8038 6.51 14.5132 6.51C15.2225 6.51 15.8525 6.67333 16.4032 7C16.9632 7.31733 17.3972 7.76533 17.7052 8.344C18.0225 8.92267 18.1812 9.58533 18.1812 10.332ZM14.5132 7.644C13.8692 7.644 13.3278 7.84 12.8892 8.232C12.4598 8.624 12.2078 9.13733 12.1332 9.772H16.8932C16.8185 9.14667 16.5618 8.638 16.1232 8.246C15.6938 7.84467 15.1572 7.644 14.5132 7.644ZM21.3354 7.826C21.5688 7.39667 21.9141 7.07 22.3714 6.846C22.8288 6.622 23.3841 6.51 24.0374 6.51V7.812C23.9628 7.80267 23.8601 7.798 23.7294 7.798C23.0014 7.798 22.4274 8.01733 22.0074 8.456C21.5968 8.88533 21.3914 9.50133 21.3914 10.304V14H20.0474V6.58H21.3354V7.826ZM38.8314 6.51C39.7647 6.51 40.5021 6.78067 41.0434 7.322C41.5941 7.86333 41.8694 8.666 41.8694 9.73V14H40.5254V9.884C40.5254 9.16533 40.3574 8.624 40.0214 8.26C39.6947 7.896 39.2234 7.714 38.6074 7.714C37.9261 7.714 37.3847 7.92867 36.9834 8.358C36.5821 8.778 36.3814 9.38467 36.3814 10.178V14H35.0374V9.884C35.0374 9.16533 34.8694 8.624 34.5334 8.26C34.2067 7.896 33.7354 7.714 33.1194 7.714C32.4381 7.714 31.8967 7.92867 31.4954 8.358C31.0941 8.778 30.8934 9.38467 30.8934 10.178V14H29.5494V6.58H30.8374V7.686C31.1081 7.30333 31.4627 7.014 31.9014 6.818C32.3401 6.61267 32.8394 6.51 33.3994 6.51C33.9781 6.51 34.4914 6.62667 34.9394 6.86C35.3874 7.09333 35.7327 7.434 35.9754 7.882C36.2554 7.45267 36.6427 7.11667 37.1374 6.874C37.6414 6.63133 38.2061 6.51 38.8314 6.51ZM47.0444 6.51C48.071 6.51 48.855 6.762 49.3964 7.266C49.947 7.77 50.2224 8.52133 50.2224 9.52V14H48.9484V13.02C48.7244 13.3653 48.4024 13.6313 47.9824 13.818C47.5717 13.9953 47.0817 14.084 46.5124 14.084C45.6817 14.084 45.0144 13.8833 44.5104 13.482C44.0157 13.0807 43.7684 12.5533 43.7684 11.9C43.7684 11.2467 44.0064 10.724 44.4824 10.332C44.9584 9.93067 45.7144 9.73 46.7504 9.73H48.8784V9.464C48.8784 8.88533 48.7104 8.442 48.3744 8.134C48.0384 7.826 47.5437 7.672 46.8904 7.672C46.4517 7.672 46.0224 7.74667 45.6024 7.896C45.1824 8.036 44.8277 8.22733 44.5384 8.47L43.9784 7.462C44.361 7.154 44.8184 6.92067 45.3504 6.762C45.8824 6.594 46.447 6.51 47.0444 6.51ZM46.7364 13.048C47.2497 13.048 47.693 12.936 48.0664 12.712C48.4397 12.4787 48.7104 12.152 48.8784 11.732V10.696H46.8064C45.6677 10.696 45.0984 11.0787 45.0984 11.844C45.0984 12.2173 45.243 12.5113 45.5324 12.726C45.8217 12.9407 46.223 13.048 46.7364 13.048ZM47.9964 3.682H49.7044L47.3524 5.502H46.0924L47.9964 3.682ZM54.8375 14.084C54.2309 14.084 53.6475 14.0047 53.0875 13.846C52.5275 13.678 52.0889 13.468 51.7715 13.216L52.3315 12.152C52.6582 12.3853 53.0549 12.572 53.5215 12.712C53.9882 12.852 54.4595 12.922 54.9355 12.922C56.1115 12.922 56.6995 12.586 56.6995 11.914C56.6995 11.69 56.6202 11.5127 56.4615 11.382C56.3029 11.2513 56.1022 11.158 55.8595 11.102C55.6262 11.0367 55.2902 10.9667 54.8515 10.892C54.2542 10.7987 53.7642 10.6913 53.3815 10.57C53.0082 10.4487 52.6862 10.2433 52.4155 9.954C52.1449 9.66467 52.0095 9.25867 52.0095 8.736C52.0095 8.064 52.2895 7.52733 52.8495 7.126C53.4095 6.71533 54.1609 6.51 55.1035 6.51C55.5982 6.51 56.0929 6.57067 56.5875 6.692C57.0822 6.81333 57.4882 6.97667 57.8055 7.182L57.2315 8.246C56.6249 7.854 55.9109 7.658 55.0895 7.658C54.5202 7.658 54.0862 7.75133 53.7875 7.938C53.4889 8.12467 53.3395 8.372 53.3395 8.68C53.3395 8.92267 53.4235 9.114 53.5915 9.254C53.7595 9.394 53.9649 9.49667 54.2075 9.562C54.4595 9.62733 54.8095 9.702 55.2575 9.786C55.8549 9.88867 56.3355 10.0007 56.6995 10.122C57.0729 10.234 57.3902 10.43 57.6515 10.71C57.9129 10.99 58.0435 11.382 58.0435 11.886C58.0435 12.558 57.7542 13.0947 57.1755 13.496C56.6062 13.888 55.8269 14.084 54.8375 14.084Z" fill="#06113C"/>
</svg>
